HIERARCHY
ROOT Hips
{
	OFFSET	0.00	0.00	0.00
	CHANNELS 6 Xposition Yposition Zposition Zrotation Xrotation Yrotation
	JOINT LeftUpLeg
	{
		OFFSET	 0.126116	-0.014019	-0.065224
		CHANNELS 3 Zrotation Xrotation Yrotation
		JOINT LeftLeg
		{
			OFFSET	 0.000000	 0.000000	 0.569914
			CHANNELS 3 Zrotation Xrotation Yrotation
			JOINT LeftFoot
			{
				OFFSET	 0.000000	 0.000000	 0.544423
				CHANNELS 3 Zrotation Xrotation Yrotation
				JOINT LeftToeBase
				{
					OFFSET	 0.000000	 0.000000	 0.207117
					CHANNELS 3 Zrotation Xrotation Yrotation
					End Site
					{
						OFFSET	 0.000000	 0.000000	 0.207117
					}
				}
			}
		}
	}
	JOINT RightUpLeg
	{
		OFFSET	-0.124023	-0.008373	-0.065224
		CHANNELS 3 Zrotation Xrotation Yrotation
		JOINT RightLeg
		{
			OFFSET	 0.000000	 0.000000	 0.570047
			CHANNELS 3 Zrotation Xrotation Yrotation
			JOINT RightFoot
			{
				OFFSET	 0.000000	 0.000000	 0.544354
				CHANNELS 3 Zrotation Xrotation Yrotation
				JOINT RightToeBase
				{
					OFFSET	 0.000000	 0.000000	 0.207540
					CHANNELS 3 Zrotation Xrotation Yrotation
					End Site
					{
						OFFSET	 0.000000	 0.000000	 0.207540
					}
				}
			}
		}
	}
	JOINT Spine
	{
		OFFSET	 0.000184	-0.007763	 0.117403
		CHANNELS 3 Zrotation Xrotation Yrotation
		JOINT Spine1
		{
			OFFSET	 0.000000	 0.000000	 0.137269
			CHANNELS 3 Zrotation Xrotation Yrotation
			JOINT Spine2
			{
				OFFSET	 0.000000	 0.000000	 0.156879
				CHANNELS 3 Zrotation Xrotation Yrotation
				JOINT LeftShoulder
				{
					OFFSET	 0.080501	-0.002496	 0.160144
					CHANNELS 3 Zrotation Xrotation Yrotation
					JOINT LeftArm
					{
						OFFSET	 0.000000	 0.000000	 0.164363
						CHANNELS 3 Zrotation Xrotation Yrotation
						JOINT LeftForeArm
						{
							OFFSET	 0.000000	 0.000000	 0.364576
							CHANNELS 3 Zrotation Xrotation Yrotation
							JOINT LeftHand
							{
								OFFSET	 0.000000	 0.000000	 0.360812
								CHANNELS 3 Zrotation Xrotation Yrotation
								JOINT LeftHandIndex1
								{
									OFFSET	 0.000000	 0.000000	 0.086006
									CHANNELS 3 Zrotation Xrotation Yrotation
									JOINT LeftHandIndex2
									{
										OFFSET	 0.000000	 0.000000	 0.047237
										CHANNELS 3 Zrotation Xrotation Yrotation
										JOINT LeftHandIndex3
										{
											OFFSET	-0.004284	-0.000551	 0.038165
											CHANNELS 3 Zrotation Xrotation Yrotation
											End Site
											{
												OFFSET	-0.004284	-0.000551	 0.038165
											}
										}
									}
								}
							}
						}
					}
				}
				JOINT Neck
				{
					OFFSET	 0.000000	 0.000000	 0.176489
					CHANNELS 3 Zrotation Xrotation Yrotation
					JOINT Head
					{
						OFFSET	 0.000000	-0.001747	 0.077940
						CHANNELS 3 Zrotation Xrotation Yrotation
						End Site
						{
							OFFSET	 0.000000	-0.001747	 0.077940
						}
					}
				}
				JOINT RightShoulder
				{
					OFFSET	-0.080363	 0.000306	 0.159706
					CHANNELS 3 Zrotation Xrotation Yrotation
					JOINT RightArm
					{
						OFFSET	 0.000000	 0.000000	 0.164196
						CHANNELS 3 Zrotation Xrotation Yrotation
						JOINT RightForeArm
						{
							OFFSET	 0.000000	 0.000000	 0.365611
							CHANNELS 3 Zrotation Xrotation Yrotation
							JOINT RightHand
							{
								OFFSET	 0.000000	 0.000000	 0.360648
								CHANNELS 3 Zrotation Xrotation Yrotation
								JOINT RightHandIndex1
								{
									OFFSET	 0.000000	 0.000000	 0.069977
									CHANNELS 3 Zrotation Xrotation Yrotation
									JOINT RightHandIndex2
									{
										OFFSET	 0.000000	 0.000000	 0.052305
										CHANNELS 3 Zrotation Xrotation Yrotation
										JOINT RightHandIndex3
										{
											OFFSET	 0.009002	-0.000782	 0.042196
											CHANNELS 3 Zrotation Xrotation Yrotation
											End Site
											{
												OFFSET	 0.009002	-0.000782	 0.042196
											}
										}
									}
								}
							}
						}
					}
				}
			}
		}
	}
}
MOTION
Frames:    10
Frame Time: 0.03333334
-0.448202	-0.033101	 1.272721	 179.842400	 0.353643	 0.582923	-20.557510	-2.514974	-179.044100	 8.346792	-12.399140	 1.681566	-33.505840	 71.353060	 9.948877	-2.385833	 28.452760	 0.000004	 22.074450	-3.130343	 178.068800	-7.498682	-11.998610	-1.890390	 34.248490	 71.066470	-10.653650	 2.384659	 28.388700	-0.000001	-4.514493	 5.650188	 0.026428	-1.435810	-9.208443	-3.240906	 5.463667	 13.582700	 2.939454	-91.776260	 78.527400	-179.999900	-9.011990	-12.688290	-5.341255	 8.561369	-2.156948	-11.427190	-5.717905	-12.055050	-5.091575	-4.130319	 21.525730	 0.991547	-5.167930	 0.731704	 3.519349	-1.378229	 35.397820	-2.634230	-0.000002	-3.783157	-0.089647	-9.346718	-8.649373	-0.708394	 89.782030	 78.203850	-180.000000	 6.009353	-12.100670	 2.857699	-12.477440	-1.768517	 15.325470	 10.708410	-12.918360	 23.698680	 5.716227	 19.173190	-3.685159	 5.027444	 0.246877	-9.377972	-2.350882	 35.473990	 5.254307
-0.449772	-0.033128	 1.272464	 179.883000	-1.982849	 1.220852	-3.986562	-0.247670	 179.478700	-0.737622	-13.258960	-0.297991	-16.808930	 72.529590	 1.281285	-2.385833	 28.452760	 0.000004	 24.403440	-0.615910	 176.419800	-1.541816	-10.953320	-0.582812	 21.209260	 69.586140	-3.086957	 2.384659	 28.388700	-0.000001	-3.597125	 7.866012	-1.290763	-0.830477	-4.183330	-3.521505	 4.280662	 5.114970	 5.374169	-91.776210	 78.527400	-180.000000	-23.900830	-9.502866	-6.421782	 3.689069	-1.625715	-15.933040	-1.948323	-18.290340	-3.190611	-4.130319	 21.525730	 0.991547	-5.167930	 0.731704	 3.519349	-1.378229	 35.397820	-2.634230	-1.358782	-1.580005	 0.664501	-10.702840	-18.065320	-6.513560	 89.782140	 78.203850	 180.000000	 1.218601	-11.386290	-0.782520	-14.164960	-3.165347	 21.174900	 8.732173	 24.584080	 68.915940	 5.716227	 19.173190	-3.685159	 5.027444	 0.246877	-9.377972	-2.350882	 35.473990	 5.254307
-0.450712	-0.033192	 1.272565	 179.948700	-3.785059	 1.883029	 9.184680	 0.662823	 177.136200	-6.817824	-14.434980	-1.849109	 4.887040	 73.779370	-15.961280	-2.385833	 28.452760	 0.000004	 26.213670	 1.062395	 174.943700	 2.018020	-10.315040	 0.088705	 5.613073	 67.991070	 10.130520	 2.384659	 28.388700	-0.000001	-2.665312	 9.320723	-2.768496	-0.594701	 0.316972	-3.402869	 3.620545	-2.026607	 6.909580	-91.776170	 78.527420	-180.000000	-50.330670	-1.246257	-4.096985	 1.501251	-1.772237	-26.906310	-0.243253	-21.990400	-1.719742	-4.130319	 21.525730	 0.991547	-5.167930	 0.731704	 3.519349	-1.378229	 35.397820	-2.634230	-2.558495	 0.298049	 1.408422	-12.771540	-25.864450	-12.170080	 89.782040	 78.203850	-180.000000	 10.836290	-8.424482	-3.796181	-16.008820	-5.995189	 30.751610	 2.292910	 47.196220	 107.449600	 5.716227	 19.173190	-3.685159	 5.027444	 0.246877	-9.377972	-2.350882	 35.473990	 5.254307
-0.451008	-0.033363	 1.272268	-179.896100	-4.030526	 2.372796	 11.707930	-0.428541	 176.266400	-8.193060	-16.823580	-2.551996	 7.095632	 74.953930	-17.058090	-2.385833	 28.452760	 0.000004	 25.909720	 0.550112	 174.586100	 2.743364	-11.611810	 0.245741	 2.188116	 67.896850	 13.146500	 2.384659	 28.388700	-0.000001	-2.615250	 9.503180	-3.181761	-0.620122	 1.289460	-4.095628	 3.466710	-3.477789	 7.619143	-91.776210	 78.527420	-180.000000	-56.665230	 2.009809	 2.910166	 0.473801	-2.172896	-41.430080	-0.577819	-21.245830	-1.998127	-4.130319	 21.525730	 0.991547	-5.167930	 0.731704	 3.519349	-1.378229	 35.397820	-2.634230	-2.870905	 0.782074	 1.780701	-13.561680	-27.525090	-13.889330	 89.782100	 78.203870	-180.000000	 13.790410	-7.197664	-8.643380	-14.778690	-8.314108	 43.291320	 4.070464	 51.445680	 109.695300	 5.716227	 19.173190	-3.685159	 5.027444	 0.246877	-9.377972	-2.350882	 35.473990	 5.254307
-0.451415	-0.033736	 1.271439	-179.682600	-4.226708	 2.841495	 13.760930	-2.150270	 175.499100	-9.639108	-20.569660	-3.617459	 9.640127	 76.990900	-18.588280	-2.385833	 28.452760	 0.000004	 25.405380	-0.905886	 174.514300	 3.482991	-14.992420	 0.507317	-0.821885	 68.949470	 15.737860	 2.384659	 28.388700	-0.000001	-2.783141	 9.645500	-3.548418	-0.786925	 2.331728	-4.845120	 3.364046	-4.893388	 8.345529	-91.776210	 78.527420	-180.000000	-62.680680	 6.782992	 13.622550	-0.745110	-2.403874	-62.682490	-1.098584	-20.633040	-2.205703	-4.130319	 21.525730	 0.991547	-5.167930	 0.731704	 3.519349	-1.378229	 35.397820	-2.634230	-3.174933	 1.239045	 2.183029	-14.385220	-29.049660	-15.717680	 89.782100	 78.203900	 180.000000	 16.844710	-4.369046	-15.475220	-11.669850	-11.045300	 62.823700	 13.495980	 54.820920	 101.278200	 5.716227	 19.173190	-3.685159	 5.027444	 0.246877	-9.377972	-2.350882	 35.473990	 5.254307
-0.451639	-0.034074	 1.270570	-179.508400	-4.140520	 2.811644	 12.901440	-3.229577	 175.715000	-9.719098	-23.122860	-4.074216	 9.045712	 78.658490	-18.066220	-2.385833	 28.452760	 0.000004	 24.970040	-2.282891	 174.990000	 3.551598	-18.074450	 0.629723	 0.100356	 70.743090	 14.656840	 2.384659	 28.388700	-0.000001	-3.234429	 9.572781	-3.435353	-1.023495	 2.456789	-5.034057	 3.404676	-4.815193	 8.456332	-91.776210	 78.527380	-180.000000	-60.242820	 8.978077	 20.260080	-1.356137	-2.743264	-77.059130	-0.995760	-20.933350	-2.205518	-4.130319	 21.525730	 0.991547	-5.167930	 0.731704	 3.519349	-1.378229	 35.397820	-2.634230	-3.156145	 1.194480	 2.269462	-14.339410	-28.830800	-15.930400	 89.782180	 78.203900	 179.999900	 16.214860	-2.063681	-19.273290	-8.909057	-11.827650	 76.316770	 24.638620	 51.480420	 83.859580	 5.716227	 19.173190	-3.685159	 5.027444	 0.246877	-9.377972	-2.350882	 35.473990	 5.254307
-0.452045	-0.034708	 1.268906	-179.265800	-3.994398	 2.769006	 11.724950	-4.959665	 176.052400	-9.947510	-27.296510	-4.862428	 8.092728	 81.402440	-17.211070	-2.385833	 28.452760	 0.000004	 24.425200	-4.328185	 175.848000	 3.674271	-22.711490	 0.831055	 2.283287	 73.449910	 12.174680	 2.384659	 28.388700	-0.000001	-3.981053	 9.435289	-3.272008	-1.467165	 2.769616	-5.338199	 3.470547	-4.784313	 8.641052	-91.776200	 78.527420	-180.000000	-55.403950	 14.730840	 28.936500	-2.409686	-2.928436	-98.232280	-0.868709	-21.377620	-2.203440	-4.130319	 21.525730	 0.991547	-5.167930	 0.731704	 3.519349	-1.378229	 35.397820	-2.634230	-3.128798	 1.120331	 2.366936	-14.272200	-28.523900	-16.183100	 89.782070	 78.203920	-180.000000	 14.842070	 4.236981	-22.299650	-4.854758	-11.766480	 95.852930	 35.131820	 42.297840	 60.520050	 5.716227	 19.173190	-3.685159	 5.027444	 0.246877	-9.377972	-2.350882	 35.473990	 5.254307
-0.452635	-0.035522	 1.266771	-178.923800	-3.863223	 2.666564	 10.847580	-6.735670	 176.445300	-10.597460	-31.779480	-5.931024	 8.082341	 84.202180	-17.098750	-2.385833	 28.452760	 0.000004	 23.848220	-6.309309	 176.980800	 3.941839	-27.493230	 1.117326	 5.083460	 76.145080	 8.966811	 2.384659	 28.388700	-0.000001	-4.917945	 9.378441	-3.021407	-2.006947	 3.138122	-5.719490	 3.485507	-4.856355	 8.890733	-91.776190	 78.527420	-180.000000	-47.209390	 26.516160	 33.010310	-3.371227	-2.625133	-117.828500	-0.874126	-21.616490	-2.212593	-4.130319	 21.525730	 0.991547	-5.167930	 0.731704	 3.519349	-1.378229	 35.397820	-2.634230	-3.086764	 0.863112	 2.108473	-14.169830	-28.186970	-15.732230	 89.782070	 78.203870	-180.000000	 11.391890	 17.014880	-19.033020	-1.917598	-10.086730	 112.428500	 36.581910	 29.922580	 39.009180	 5.716227	 19.173190	-3.685159	 5.027444	 0.246877	-9.377972	-2.350882	 35.473990	 5.254307
-0.453372	-0.036437	 1.264401	-178.608600	-3.710561	 2.573462	 10.051070	-8.373438	 176.856200	-11.333520	-36.051780	-7.066662	 8.364600	 86.996250	-17.310570	-2.385833	 28.452760	 0.000004	 23.443170	-8.069780	 178.229300	 4.224897	-31.819020	 1.425487	 9.736415	 78.556420	 3.856266	 2.384659	 28.388700	-0.000001	-5.882299	 9.260333	-2.805960	-2.600565	 3.630684	-6.050667	 3.507350	-4.990852	 9.115541	-91.776130	 78.527400	 180.000000	-27.284540	 44.142480	 20.201230	-3.855603	-2.315307	-128.934900	-0.881702	-21.878230	-2.221742	-4.130319	 21.525730	 0.991547	-5.167930	 0.731704	 3.519349	-1.378229	 35.397820	-2.634230	-3.048167	 0.606136	 1.835616	-14.065090	-27.849400	-15.228080	 89.782200	 78.203870	 179.999900	-1.064318	 34.473460	-2.693923	-1.154172	-8.824023	 119.190100	 25.590700	 16.618090	 21.803540	 5.716227	 19.173190	-3.685159	 5.027444	 0.246877	-9.377972	-2.350882	 35.473990	 5.254307
-0.454404	-0.037575	 1.261586	-178.076200	-3.635328	 2.457510	 8.630681	-9.861823	 177.437300	-12.052040	-40.459830	-8.262169	-165.741800	 89.703260	 156.731600	-2.385833	 28.452760	 0.000004	 22.763770	-9.613782	 179.724600	 4.597469	-36.085110	 1.812161	 17.260670	 80.753560	-4.209217	 2.384659	 28.388700	-0.000001	-7.124771	 9.037431	-2.735871	-3.291048	 4.476248	-5.896369	 3.434459	-5.107724	 9.026627	-91.776270	 78.527400	-179.999900	 17.748330	 54.526860	-28.418890	-3.642241	-2.463495	-123.924900	-0.909927	-22.203710	-2.231241	-4.130319	 21.525730	 0.991547	-5.167930	 0.731704	 3.519349	-1.378229	 35.397820	-2.634230	-2.996250	-0.093779	 0.777309	-13.689990	-26.910330	-12.723190	 89.782160	 78.203900	 179.999900	-30.624850	 45.924150	 35.804630	-2.455659	-9.734594	 110.391900	 6.153866	 5.382377	 11.569330	 5.716227	 19.173190	-3.685159	 5.027444	 0.246877	-9.377972	-2.350882	 35.473990	 5.254307
